<svg xmlns="http://www.w3.org/2000/svg" style="display: none;">
  
    <symbol id="icon-add" viewBox="0 0 512 512">
      <path d="m256 512c-141 0-256-115-256-256 0-141 115-256 256-256 141 0 256 115 256 256 0 141-115 256-256 256z m0-448c-106 0-192 86-192 192 0 106 86 192 192 192 106 0 192-86 192-192 0-106-86-192-192-192z m32 320l-64 0 0-96-96 0 0-64 96 0 0-96 64 0 0 96 96 0 0 64-96 0z"/>
    </symbol>
  
    <symbol id="icon-alarm" viewBox="0 0 512 512">
      <path d="m448 256c0-106-86-192-192-192-106 0-192 86-192 192 0 67 34 125 86 160l-54 53 43 43 70-70c15 4 31 6 47 6 16 0 32-2 47-6l70 70 43-43-54-53c52-35 86-93 86-160z m-192 128c-71 0-128-57-128-128 0-71 57-128 128-128 71 0 128 57 128 128 0 71-57 128-128 128z m192-384c-35 0-64 29-64 64 0 3 0 6 1 9 21 15 39 33 54 54 3 1 6 1 9 1 35 0 64-29 64-64 0-35-29-64-64-64z m-375 127c15-21 33-39 54-54 1-3 1-6 1-9 0-35-29-64-64-64-35 0-64 29-64 64 0 35 29 64 64 64 3 0 6 0 9-1z m215 97l0-64-64 0 0 128 96 0 0-64z"/>
    </symbol>
  
    <symbol id="icon-anchor" viewBox="0 0 512 512">
      <path d="m473 409c-47 64-129 104-217 103-88 1-170-39-217-103l-39 39 0-128 128 0-35 35c28 47 75 80 131 90l0-194c-55-14-96-63-96-123 0-71 57-128 128-128 71 0 128 57 128 128 0 60-41 109-96 123l0 194c56-10 103-43 131-90l-35-35 128 0 0 128z m-153-281c0-35-29-64-64-64-35 0-64 29-64 64 0 35 29 64 64 64 35 0 64-29 64-64z"/>
    </symbol>
  
    <symbol id="icon-attachment" viewBox="0 0 512 512">
      <path d="m288 509l0 3-64 0 0-3c-108-16-192-108-192-221l0-128c0-88 72-160 160-160 77 0 145 55 160 128l0 160c0 53-43 96-96 96-53 0-96-43-96-96l0-128c0-18 14-32 32-32 18 0 32 14 32 32l0 128c0 18 14 32 32 32 18 0 32-14 32-32l0-160c0 0-21-64-96-64-53 0-96 43-96 96l0 128c0 88 72 160 160 160 88 0 160-72 160-160l0-256c0-18 14-32 32-32 18 0 32 14 32 32l0 256c0 113-84 205-192 221z"/>
    </symbol>
  
    <symbol id="icon-brightness" viewBox="0 0 512 512">
      <path d="m32 224c-18 0-32 14-32 32 0 18 14 32 32 32 18 0 32-14 32-32 0-18-14-32-32-32z m64-96c18 0 32-14 32-32 0-18-14-32-32-32-18 0-32 14-32 32 0 18 14 32 32 32z m160-64c18 0 32-14 32-32 0-18-14-32-32-32-18 0-32 14-32 32 0 18 14 32 32 32z m-160 320c-18 0-32 14-32 32 0 18 14 32 32 32 18 0 32-14 32-32 0-18-14-32-32-32z m320 0c-18 0-32 14-32 32 0 18 14 32 32 32 18 0 32-14 32-32 0-18-14-32-32-32z m-160-256c-71 0-128 57-128 128 0 71 57 128 128 128 71 0 128-57 128-128 0-71-57-128-128-128z m0 192c-35 0-64-29-64-64 0-35 29-64 64-64 35 0 64 29 64 64 0 35-29 64-64 64z m224-96c-18 0-32 14-32 32 0 18 14 32 32 32 18 0 32-14 32-32 0-18-14-32-32-32z m-224 224c-18 0-32 14-32 32 0 18 14 32 32 32 18 0 32-14 32-32 0-18-14-32-32-32z m160-320c18 0 32-14 32-32 0-18-14-32-32-32-18 0-32 14-32 32 0 18 14 32 32 32z"/>
    </symbol>
  
    <symbol id="icon-brightness-half" viewBox="0 0 512 512">
      <path d="m256 128c-71 0-128 57-128 128 0 71 57 128 128 128 71 0 128-57 128-128 0-71-57-128-128-128z m0 192c-35 0-64-29-64-64 0-35 29-64 64-64z m0-256c18 0 32-14 32-32 0-18-14-32-32-32-18 0-32 14-32 32 0 18 14 32 32 32z m-160 64c18 0 32-14 32-32 0-18-14-32-32-32-18 0-32 14-32 32 0 18 14 32 32 32z m-64 96c-18 0-32 14-32 32 0 18 14 32 32 32 18 0 32-14 32-32 0-18-14-32-32-32z m64 160c-18 0-32 14-32 32 0 18 14 32 32 32 18 0 32-14 32-32 0-18-14-32-32-32z m160 64c-18 0-32 14-32 32 0 18 14 32 32 32 18 0 32-14 32-32 0-18-14-32-32-32z m160-64c-18 0-32 14-32 32 0 18 14 32 32 32 18 0 32-14 32-32 0-18-14-32-32-32z m64-160c-18 0-32 14-32 32 0 18 14 32 32 32 18 0 32-14 32-32 0-18-14-32-32-32z m-64-96c18 0 32-14 32-32 0-18-14-32-32-32-18 0-32 14-32 32 0 18 14 32 32 32z"/>
    </symbol>
  
    <symbol id="icon-words" viewBox="0 0 512 512">
      <path d="m256 2c-141 0-256 91-256 201 0 69 44 129 110 165-4 26-18 58-55 91 0 0 95 0 149-59 17 3 34 4 52 4 142 0 257-90 257-201 0-110-116-201-257-201z m0 384c-20 0-40-2-59-6-35 50-101 59-101 59 24-28 32-58 33-82-66-32-110-89-110-154 0-101 107-183 238-183 131 0 238 82 238 183 0 102-107 183-239 183z m-106-155l220 0c11 0 20-9 20-20 0-12-8-21-20-21l-220 0c-11 0-20 9-20 21 0 11 9 20 20 20z"/>
    </symbol>
  
    <symbol id="icon-timer" viewBox="0 0 512 512">
      <path d="m244 249l0-146c0-5-4-9-9-9-5 0-9 4-9 9l0 146c-11 4-19 14-19 26 0 12 8 22 19 25l0 28c0 5 4 10 9 10 5 0 9-5 9-10l0-28c11-4 18-14 18-26 0-11-7-21-18-25z m164-153c0 0 13-13 19-6 4 3 9 3 13 0 4-4 4-10 0-13l-25-26c-4-3-10-3-13 0-4 4-4 10 0 13 0 0 6 6-7 19z m-164-56l0-28c0-4-4-9-9-9-5 0-9 5-9 9l0 28c-125 5-226 108-226 234 0 129 106 235 235 235 129 0 235-106 235-235 0-126-101-229-226-234z m-9 451c-119 0-217-97-217-217 0-120 98-216 217-216 119 0 217 97 217 217 0 120-98 216-217 216z"/>
    </symbol>
  
    <symbol id="icon-phrases" viewBox="0 0 512 512">
      <path d="m256 2c-141 0-256 91-256 201 0 69 44 129 110 165-4 26-18 58-55 91 0 0 95 0 149-59 17 3 34 4 52 4 142 0 257-90 257-201 0-110-116-201-257-201z m0 384c-20 0-40-2-59-6-35 50-101 59-101 59 24-28 32-58 33-82-66-32-110-89-110-154 0-101 107-183 238-183 131 0 238 82 238 183 0 102-107 183-239 183z m-106-232l220 0c11 0 20-9 20-20 0-12-8-21-20-21l-220 0c-11 0-20 9-20 21 0 11 9 20 20 20z m115 103l-115 0c-11 0-20 9-20 21 0 11 9 21 20 21l115 0c11 0 21-9 21-21 0-12-10-21-21-21z m105-72l-220 0c-11 0-20 9-20 21 0 11 9 21 20 21l220 0c11 0 20-9 20-21 0-12-9-21-20-21z"/>
    </symbol>
  
    <symbol id="icon-flip" viewBox="0 0 512 512">
      <path d="m256 18c91 0 172 52 211 128l-110 0c-5 0-10 4-10 9 0 5 5 10 10 10l128 0c5 0 9-5 9-10l0-128c0-5-4-9-9-9-5 0-10 4-10 9l0 98c-44-75-126-125-219-125-142 0-256 114-256 256 0 5 4 9 9 9 6 0 10-4 10-9-1-131 106-238 237-238z m247 229c-6 0-10 4-10 9 0 131-106 238-238 238-91 0-171-52-211-128l110 0c6 0 10-4 10-9 0-5-4-10-10-10l-128 0c-5 0-9 5-9 10l0 128c0 5 4 9 9 9 6 0 10-4 10-9l0-98c45 75 127 125 220 125 142 0 256-114 256-256 0-5-4-9-9-9z"/>
    </symbol>
  
    <symbol id="icon-menu-toggle" viewBox="0 0 512 512">
      <path d="m40 84l431 0c23 0 40-19 40-40 0-22-17-41-39-41l-432 0c-22 0-40 18-40 40 0 21 18 41 40 41z m431 242l-431 0c-23 0-40 19-40 40 0 23 18 40 40 40l431 0c23 0 40-18 40-40 1-22-17-40-40-40z m0-161l-431 0c-23 0-40 18-40 39 0 22 18 40 40 40l431 0c23 0 40-18 40-40 0-21-17-39-40-39z"/>
    </symbol>
  
    <symbol id="icon-reading" viewBox="0 0 512 512">
      <path d="m81 193l0-178c0-7-8-15-17-15-9 0-15 8-15 15l0 178c-29 8-49 34-49 63 0 29 20 55 49 63l0 178c0 7 6 15 15 15 9 0 15-8 15-15l0-178c29-8 49-34 49-63 0-29-20-55-47-63z m-16 95c-1 0-1 0 0 0-1 0-1 0 0 0-18 0-32-14-32-32 0-18 14-32 32-32 18 0 32 14 32 32-1 18-15 32-32 32z m206 1l0-274c0-7-6-15-15-15-9 0-15 8-15 15l0 274c-29 8-49 32-49 63 0 31 20 55 49 63l0 82c0 9 7 15 15 15 9 0 15-8 15-15l0-82c29-8 49-32 49-63 0-31-20-55-49-63z m-15 95c-18 0-32-14-32-32 0-18 14-32 32-32 18 0 32 14 32 32 0 18-14 32-32 32z m256-224c0-29-20-55-49-63l0-82c0-7-6-15-15-15-9 0-15 8-15 15l0 82c-29 8-49 32-49 63 0 31 20 55 49 63l0 274c0 9 7 15 15 15 9 0 15-8 15-15l0-274c29-8 49-34 49-63z m-64 32c-18 0-32-14-32-32 0-18 14-32 32-32 18 0 32 14 32 32 0 18-14 32-32 32z"/>
    </symbol>
  
    <symbol id="icon-stories" viewBox="0 0 512 512">
      <path d="m464 34l-174 0c-14 0-26 7-34 17-9-10-21-17-35-17l-174 0c-26 0-47 23-47 49l0 295c0 0 0 49 47 49 46 0 150 0 150 0 0 0 47 0 47 48l23 0c0 0 0-48 47-48l151 0c0 0 47 0 47-49 0-40 0-207 0-271l0-24c-1-26-21-49-48-49z m-220 75l0 313c-12-19-35-19-35-19 0 0-139 0-162 0-24 0-24-24-24-24 0 0 0-198 0-270l0-26c0-13 10-24 24-24l174 0c13 0 23 11 23 24z m244 0c0 73 0 270 0 270 0 0 0 24-24 24-23 0-163 0-163 0 0 0-23 0-34 19l0-339c0-13 10-24 23-24l175 0c14 0 24 11 24 24l0 26z"/>
    </symbol>
  
    <symbol id="icon-manage" viewBox="0 0 512 512">
      <path d="m375 153l-46-28c-12-8-24-2-27 11l-13 51c-4 13 4 21 17 16l20-7c2 10 4 21 5 31 1 9 9 15 17 15 0 0 1 0 2 0 8-1 16-8 15-18-1-13-4-27-8-40l17-7c12-5 13-17 1-24z m43-111l-96 0 0-17 17 0c9 0 16-3 16-12 0-10-6-11-15-11l-168 0c-9 0-16 2-16 12 0 9 7 12 16 12l16 0 0 16-94 0c-31 0-56 24-56 54l0 359c0 30 25 55 56 55l324 0c31 0 56-25 56-55l0-359c0-30-25-54-56-54z m-196-17l78 0 0 16-88 0 0-16z m229 441c0 10-16 21-22 21l-346 0c-8 0-22-13-22-21l0-379c0-9 14-22 22-22l345 0c10 0 22 12 22 22l0 368z m-243-124c-6-7-17-7-24 0l-20 19-19-19c-7-7-18-7-24 0-7 6-7 17 0 23l20 20-20 20c-7 6-7 17 0 24 3 3 8 4 12 4 4 0 9-2 12-4l19-20 20 20c3 3 8 4 12 4 4 0 9-2 12-4 7-7 7-18 0-24l-20-20 20-20c7-7 7-17 0-23z m82 4c-15 13-31 17-31 17-8 4-13 12-11 21 3 8 9 12 17 12 2 0 3 0 5-1 2-1 21-7 42-24 7-6 7-16 2-24-7-7-18-8-24-1z m59-88c-9-1-18 4-20 14-2 15-7 28-13 41-4 8-1 19 6 23 3 1 6 2 8 2 6 0 12-3 15-8 9-16 14-33 18-53 1-10-5-18-14-19z m-176-127c-31 0-58 26-58 58 0 32 27 58 58 58 32 0 58-26 58-58 0-32-26-58-58-58z m0 81c-13 0-24-11-24-24 0-13 11-24 24-24 13 0 24 11 24 24 0 13-11 24-24 24z"/>
    </symbol>
  
    <symbol id="icon-assessments" viewBox="0 0 512 512">
      <path d="m455 150c-17 0-32 14-32 32 0 0 0 1 0 1l-50 20c-5-6-14-10-24-10-18 0-32 14-32 31 0 5 1 10 4 13l-64 64c-4-2-9-3-13-3-2 0-3 0-6 1l-54-98c4-5 7-13 7-20 0-18-14-32-31-32-18 0-32 14-32 32 0 4 1 9 3 13l-63 63c-5-2-9-3-13-3-18 0-32 14-32 32 0 17 14 31 32 31 17 0 33-12 33-29 0-6-2-10-4-14l64-64c4 2 8 3 13 3 2 0 3 0 5-1l55 98c-4 5-8 13-8 20 0 18 15 32 32 32 18 0 32-14 32-32 0-5-1-9-3-14l63-63c4 2 9 3 13 3 18 0 32-14 32-32 0 0 0-1 0-1l50-20c6 7 14 11 24 11 18 0 32-14 32-31 0-18-15-33-33-33z"/>
    </symbol>
  
    <symbol id="icon-whiteboard" viewBox="0 0 512 512">
      <path d="m78 288l160 162c0 0-125-1-143 19l-40-32c0 0 29-2 23-149z m291-270l-274 249 166 164 250-273c0 0-41-97-142-140z m-208 277l-29-29 238-224 32 33z m-120 149l-40 36 47 14 23-20z"/>
    </symbol>
  
    <symbol id="icon-timer-filled" viewBox="0 0 512 512">
      <path d="m429 96c0 0 13-13 19-6 4 3 9 3 13 0 4-4 4-10 0-13l-25-26c-4-3-10-3-13 0-4 4-4 10 0 13 0 0 6 6-7 19z m-164-56l0-28c0-4-4-9-9-9-5 0-9 5-9 9l0 28c-125 5-226 108-226 234 0 129 106 235 235 235 129 0 235-106 235-235 0-126-101-229-226-234z m0 259l0 29c0 5-4 9-9 9-5 0-9-4-9-9l0-29c-11-4-19-14-19-26 0-12 8-22 19-25l0-145c0-5 4-9 9-9 5 0 9 4 9 9l0 146c11 4 19 14 19 26 0 12-8 21-19 24z"/>
    </symbol>
  
    <symbol id="icon-forbidden" viewBox="0 0 512 512">
      <path d="m245 64c-111 0-202 91-202 203c0 111 91 202 202 202c112 0 203-91 203-202c0-112-91-203-203-203z m-160 203c0-89 72-160 160-160c33 0 63 10 88 26l-221 222c-17-25-27-56-27-88z m160 160c-32 0-63-10-88-27l222-221c17 25 26 55 26 88c0 88-71 160-160 160z"/>
    </symbol>
  
    <symbol id="icon-triangle-down" viewBox="0 0 512 512">
      <path d="m64 192l192 192 192-192z"/>
    </symbol>
  
    <symbol id="icon-triangle-up" viewBox="0 0 512 512">
      <path d="m256 128l-192 192 384 0z"/>
    </symbol>
  
    <symbol id="icon-triangle-left" viewBox="0 0 512 512">
      <path d="m160 256l192 192 0-384z"/>
    </symbol>
  
    <symbol id="icon-triangle-right" viewBox="0 0 512 512">
      <path d="m160 64l192 192-192 192z"/>
    </symbol>
  
    <symbol id="icon-tiles-filled" viewBox="0 0 512 512">
      <path d="m216 285l-191 0c-14 0-25-11-25-24l0-88c0-14 11-25 25-25l191 0c14 0 25 11 25 25l0 88c0 13-11 24-25 24z m271 79l-191 0c-14 0-25-11-25-25l0-88c0-13 11-24 25-24l191 0c14 0 25 11 25 24l0 88c0 14-11 25-25 25z"/>
    </symbol>
  
    <symbol id="icon-phrases-filled" viewBox="0 0 512 512">
      <path d="m256 27c-141 0-256 91-256 201 0 69 44 129 110 165-4 26-18 58-55 91 0 0 95 0 149-59 17 3 34 4 52 4 142 0 257-90 257-201 0-110-116-201-257-201z m9 296l-115 0c-11 0-20-9-20-21 0-11 9-20 20-20l115 0c11 0 21 8 21 20 0 12-10 21-21 21z m105-72l-220 0c-11 0-20-9-20-21 0-11 9-20 20-20l220 0c11 0 20 9 20 20 0 12-9 21-20 21z m0-72l-220 0c-11 0-20-9-20-20 0-12 9-21 20-21l220 0c11 0 20 9 20 21 0 11-9 20-20 20z"/>
    </symbol>
  
    <symbol id="icon-words-filled" viewBox="0 0 512 512">
      <path d="m256 27c-141 0-256 91-256 201 0 69 44 129 110 165-4 26-18 58-55 91 0 0 95 0 149-59 17 3 34 4 52 4 142 0 257-90 257-201 0-110-115-201-257-201z m114 229l-220 0c-11 0-20-9-20-20 0-11 9-21 20-21l220 0c11 0 20 9 20 21 0 11-9 20-20 20z"/>
    </symbol>
  
    <symbol id="icon-edit" viewBox="0 0 512 512">
      <path d="m455 90l-232 233-31-2-2-31 232-233-16-16-238 237-16 84 82-17 240-240-3 2z m-48 143c-7 0-12 5-12 12l0 245-372 0 0-373 245 0c7 0 12-5 12-12 0-7-5-12-12-12l-245 0c-13 0-23 11-23 24l0 372c0 13 10 23 23 23l372 0c13 0 24-10 24-23l0-244c0-7-5-12-12-12z m98-193l-33-34c-9-10-24-10-32 0l-18 17 67 67 16-17c9-9 9-24 0-33z"/>
    </symbol>
  
    <symbol id="icon-plus" viewBox="0 0 512 512">
      <path d="m503 247l-238 0 0-238c0-5-4-9-9-9-5 0-9 4-9 9l0 238-238 0c-5 0-9 5-9 10 0 5 4 9 9 9l238 0 0 238c0 5 5 10 10 10 5 0 9-5 9-10l0-239 238 0c5 0 10-4 10-9-2-5-6-9-11-9z"/>
    </symbol>
  
    <symbol id="icon-minus" viewBox="0 0 512 512">
      <path d="m503 246l-493 0c-5 0-10 4-10 10 0 5 5 9 10 9l493 0c5 0 9-4 9-9 0-6-5-10-9-10z"/>
    </symbol>
  
    <symbol id="icon-login-teacher" viewBox="0 0 512 512">
      <path d="m238 101c0 18-15 32-33 32-18 0-32-14-32-32 0-18 14-33 32-33 18 0 33 15 33 33z m89 36c0 0-4-11-16 0-13 11-41 22-56 12-14-9-19-8-19-8l-60 0c0 0-36 6-36 41 0 36 46 36 50 36 4 0 24 2 24-12 0-13-19-12-24-12-5 0-29 1-29-13 0-5 3-9 8-12l0 17c5 4 17 5 20 5l4-22 39 6-11 62-39-7 1-9c-3 0-8 0-14-1l0 141c0 0 0 0 0 1 0 10 9 18 19 18 10 0 18-8 18-18 0-1 0-1 0-1l0-107c0-1 1-2 2-2 1 0 2 1 2 2l0 107c0 0 0 0 0 1 0 10 8 18 19 18 10 0 18-8 18-18 0-1 0-1 0-1l0-189c2 0 4 1 7 1 20 5 42-1 63-13 20-12 10-23 10-23z m-41-99l0 105c10-3 19-10 25-15 18-14 26 8 26 8 3 4 6 17-17 30-11 7-23 11-34 13l0 3 226 0 0-144z m113 99l-4 0c-2 0-4-1-4-3l-5-14-23 0-4 14c-1 2-2 3-5 3l-4 0c-3 0-4-2-3-4l20-58c1-2 2-3 5-3l5 0c3 0 4 0 5 3l20 58c1 2 0 4-3 4z m48-4c0 3-1 4-3 4l-4 0c-2 0-3-1-3-4l0-2c0-1 0-2 0-2l0 0c0 0-5 9-15 9-9 0-16-6-16-14 0-14 17-16 28-16l2 0 0-1c0-7-4-9-9-9-4 0-8 2-10 3-2 1-4 1-5-1l-1-2c-1-2-1-4 2-5 3-2 8-4 15-4 12 0 19 7 19 19z m-29-10c0 3 2 6 7 6 6 0 11-6 11-12l0-2-2 0c-6 0-16 1-16 8z m-43-40l0 0c0 0-2 6-3 10l-6 18 17 0-6-18c-1-4-2-10-2-10z m37 159c1 4 1 9 1 14 0 110-90 200-200 200-111 0-201-89-201-200 0-111 90-200 201-200 21 0 41 3 61 9l33 0c-29-14-61-22-94-22-118 0-213 96-213 213 0 118 95 213 213 213 117 0 212-95 212-213 0-5 0-10 0-14l-13 0z"/>
    </symbol>
  
    <symbol id="icon-login-student" viewBox="0 0 512 512">
      <path d="m303 150c0 23-18 41-40 41-23 0-41-18-41-41 0-22 18-40 41-40 22 0 40 18 40 40z m-99 51l117 0 0 81-117 0z m19 66c-10 3-16 13-22-10l-49-168c-2-8 3-18 13-20 9-3 19 2 22 10l49 168c2 9-4 18-13 20z m150 32l-223 0c-3 0-5-2-5-5l0-2c0-2 2-5 5-5l223 0c2 0 4 3 4 5l0 2c0 3-2 5-4 5z m-200 136l0-143c0-3 2-5 5-5l2 0c3 0 5 2 5 5l0 143c0 3-2 5-5 5l-2 0c-3 0-5-2-5-5z m167 0l0-143c0-3 3-5 5-5l2 0c3 0 5 2 5 5l0 143c0 3-2 5-5 5l-2 0c-2 0-5-2-5-5z m-102 10l-9 0c-11 0-21-9-21-21l0-99c0-11 10-21 21-21l9 0c11 0 20 10 20 21l0 99c1 12-9 21-20 21z m60 0l-9 0c-12 0-21-9-21-21l0-99c0-11 9-21 21-21l9 0c11 0 20 10 20 21l0 99c0 12-9 21-20 21z m55-185l-5 4c-6 5-16 3-21-3l-25-33c-5-7-3-16 3-21l5-4c7-5 16-4 21 3l25 33c5 7 4 16-3 21z m-54 23l-4-5c-4-7-3-16 3-21l33-25c7-5 16-4 21 3l4 5c5 6 4 16-3 21l-33 25c-7 5-16 3-21-3z m14-50l2 0 6 4 1 1 1-1 2-4c0 0 0-1-1-1l-6-4c-1-1-2 0-2 0l-1 1-1 3z m-18 30l17-28 9 6-17 27z m-2 2l-1 12c0 0 0 1 0 0l10-6z m-37-265c-141 0-256 115-256 256 0 141 115 256 256 256 141 0 256-114 256-256 0-142-114-256-256-256z m0 497c-133 0-241-108-241-241 0-133 108-241 241-241 133 0 241 108 241 241 0 133-108 241-241 241z"/>
    </symbol>
  
    <symbol id="icon-clear" viewBox="0 0 512 512">
      <path d="m420 67l21 21-356 356-21-20z m-164-67c-141 0-256 115-256 256 0 141 115 256 256 256 141 0 256-115 256-256 0-141-115-256-256-256z m0 491c-130 0-235-105-235-235 0-130 105-235 235-235 130 0 235 105 235 235 0 130-105 235-235 235z"/>
    </symbol>
  
    <symbol id="icon-tiles" viewBox="0 0 512 512">
      <path d="m216 163c5 0 10 5 10 10l0 88c0 5-5 9-10 9l-191 0c-5 0-10-4-10-9l0-88c0-5 5-10 10-10l191 0m0-15l-191 0c-14 0-25 11-25 25l0 88c0 13 11 24 25 24l191 0c14 0 25-11 25-24l0-88c0-14-11-25-25-25z m271 94c5 0 10 4 10 9l0 88c0 5-5 10-10 10l-191 0c-5 0-10-5-10-10l0-88c0-5 5-9 10-9l191 0m0-15l-191 0c-14 0-25 11-25 24l0 88c0 14 11 25 25 25l191 0c14 0 25-11 25-25l0-88c0-13-11-24-25-24z"/>
    </symbol>
  
    <symbol id="icon-close-matrix" viewBox="0 0 512 512">
      <path d="m321 362l-131 0c-5 0-9 3-12 6 0 2-1 3-1 4 0 2 0 5 3 6l65 59c2 2 6 3 10 3 4 0 8-1 10-3l66-59c3-1 4-4 4-6 0-2-1-3-2-4-2-3-6-6-12-6m146-292l-423 0c-24 0-44 20-44 44l0 181c0 24 20 44 44 44l423 0c25 0 44-20 44-44l0-181c1-24-19-44-44-44z m-385 223l-50 0 0-50 50 0z m0-66l-50 0 0-50 50 0z m0-66l-50 0 0-50 50 0z m66 132l-49 0 0-50 49 0z m0-66l-49 0 0-50 49 0z m0-66l-49 0 0-50 49 0z m66 132l-49 0 0-50 49 0z m0-66l-49 0 0-50 49 0z m0-66l-49 0 0-50 49 0z m66 132l-49 0 0-50 49 0z m0-66l-49 0 0-50 49 0z m0-66l-49 0 0-50 49 0z m67 132l-49 0 0-50 49 0z m0-66l-49 0 0-50 49 0z m0-66l-49 0 0-50 49 0z m66 132l-49 0 0-50 49 0z m0-66l-49 0 0-50 49 0z m0-66l-49 0 0-50 49 0z m67 132l-50 0 0-50 50 0z m0-66l-50 0 0-50 50 0z m0-66l-50 0 0-50 50 0z"/>
    </symbol>
  
    <symbol id="icon-matrix-open" viewBox="0 0 512 512">
      <path d="m190 79l131 0c5 0 9-2 12-5 0-2 1-3 1-4 0-3-1-5-3-6l-65-59c-3-3-6-4-10-4-4 0-8 1-10 3l-66 60c-2 1-3 3-3 6 0 1 1 3 2 4 2 3 7 5 11 5m-145 292l422 0c24 0 43-19 43-44l0-180c0-24-19-44-43-44l-422 0c-25 0-44 20-44 44l0 180c0 24 19 44 44 44z m384-222l49 0 0 49-49 0z m0 66l49 0 0 49-49 0z m0 66l49 0 0 49-49 0z m-66-132l50 0 0 49-50 0z m0 66l50 0 0 49-50 0z m0 66l50 0 0 49-50 0z m-66-132l50 0 0 49-50 0z m0 66l50 0 0 49-50 0z m0 66l50 0 0 49-50 0z m-66-132l49 0 0 49-49 0z m0 66l49 0 0 49-49 0z m0 66l49 0 0 49-49 0z m-66-132l50 0 0 49-50 0z m0 66l50 0 0 49-50 0z m0 66l50 0 0 49-50 0z m-66-132l49 0 0 49-49 0z m0 66l49 0 0 49-49 0z m0 66l49 0 0 49-49 0z m-66-132l49 0 0 49-49 0z m0 66l49 0 0 49-49 0z m0 66l49 0 0 49-49 0z"/>
    </symbol>
  
    <symbol id="icon-letters-filled" viewBox="0 0 512 512">
      <path d="m293 260c0 9 6 18 20 18 19 0 30-19 30-35l0-4-6 0c-15 0-44 0-44 21z m-37-233c-141 0-256 91-256 201 0 69 44 129 110 165-4 26-18 58-55 91 0 0 95 0 149-59 17 3 34 4 52 4 142 0 257-90 257-201 0-110-116-201-257-201z m0 265l-8 0c-4 0-6-2-8-6l-13-39-58 0-13 39c-1 4-4 6-9 6l-7 0c-5 0-7-3-6-8l50-140c2-4 4-5 9-5l10 0c4 0 7 1 8 5l51 140c1 5-1 8-6 8z m108-7c0 5-3 8-8 8l-5 0c-4 0-7-3-7-8l0-6c0-5 1-7 1-7l-1 0c0 0-11 23-36 23-19 0-37-12-37-33 0-34 43-37 66-37l6 0 0-3c0-18-10-25-24-25-11 0-20 5-24 7-5 2-8 1-10-3l-1-3c-2-5-2-8 2-10 7-4 19-9 36-9 27 0 43 15 43 43l0 63z m-166-125c-1 0-4 14-7 22l-17 48 47 0-17-48c-3-8-6-22-6-22z"/>
    </symbol>
  
    <symbol id="icon-letters" viewBox="0 0 512 512">
      <path d="m256 27c-141 0-256 91-256 201 0 69 44 129 110 165-4 26-18 58-55 91 0 0 95 0 149-59 17 3 34 4 52 4 142 0 257-90 257-201 0-110-115-201-257-201z m0 384c-20 0-40-2-59-6-35 50-101 59-101 59 24-28 32-58 33-82-66-32-110-89-110-154 0-101 107-183 238-183 131 0 238 82 238 183 0 102-107 183-239 183z m-72-267c2-4 4-5 9-5l10 0c4 0 7 1 8 5l51 140c1 5-1 8-6 8l-8 0c-4 0-6-2-8-6l-13-39-58 0-13 39c-1 4-4 6-9 6l-7 0c-5 0-7-3-6-8z m37 86l-17-48c-3-9-6-22-6-22l-1 0c0 0-4 14-6 22l-17 48z m116-5l6 0 0-3c0-18-10-25-24-25-11 0-20 5-24 7-5 2-8 1-10-3l-1-3c-2-5-2-8 2-10 7-4 19-9 36-9 27 0 43 15 43 43l0 62c0 4-3 7-8 7l-5 0c-4 0-7-2-7-7l0-7c0-4 0-7 0-7l0 0c0 0-11 23-36 23-19 0-37-11-37-32-1-33 42-36 65-36z m-24 53c18 0 29-19 29-35l0-4-6 0c-15 0-44 1-44 22 1 8 7 17 21 17z"/>
    </symbol>
  
    <symbol id="icon-manage-filled" viewBox="0 0 512 512">
      <path d="m418 42l-95 0 0-17 17 0c9 0 17-2 17-11 0-8-8-12-17-12l-168 0c-9 0-17 3-17 11 0 9 8 11 17 11l17 0 0 17-95 0c-31 1-56 26-56 56l0 357c0 31 25 56 56 56l324 0c31 0 56-25 56-56l0-357c0-30-25-55-56-55z m-206-17l88 0 0 17-88 0z m-4 379c7 7 7 17 0 24-3 3-7 5-12 5-4 0-8-2-12-5l-19-20-20 20c-3 3-8 5-12 5-4 0-8-2-12-5-7-7-7-17 0-24l20-20-20-19c-7-7-7-17 0-24 7-7 17-7 24 0l20 20 19-20c7-7 17-7 24 0 7 7 7 17 0 24l-19 19z m-35-159c-31 0-57-25-57-57 0-31 26-57 57-57 32 0 57 26 57 57 0 32-25 57-57 57z m138 126c-21 17-40 23-42 24-2 1-4 1-5 1-7 0-14-5-17-12-2-9 3-18 12-22 0 0 14-5 29-18 7-6 18-5 24 3 7 8 6 19-1 24z m52-94c-3 19-9 36-17 52-4 6-9 8-15 8-2 0-5 0-8-1-8-4-11-15-6-22 6-12 11-27 13-41 2-10 10-16 19-14 9 2 15 9 14 18z m10-101l-16 7c3 14 6 27 7 41 1 9-6 17-15 19-1 0-1 0-2 0-8 0-15-7-16-16-1-10-2-20-5-31l-20 8c-12 5-20-3-17-17l14-52c3-13 16-18 27-10l45 28c11 7 11 18-2 23z m-200-12c-13 0-24 11-24 24 0 13 11 24 24 24 13 0 24-11 24-24 0-13-10-24-24-24z"/>
    </symbol>
  
    <symbol id="icon-close-filled" viewBox="0 0 512 512">
      <path d="m256 0c-142 0-256 114-256 256 0 142 114 256 256 256 142 0 256-114 256-256 0-142-113-256-256-256z m37 256l50 50c8 8 8 24 0 34-8 8-24 8-34 0l-50-50-3 0-50 50c-8 8-24 8-34 0-8-8-8-24 0-34l50-50 0-3-50-50c-8-8-8-24 0-34 8-8 24-8 34 0l50 50 3 0 50-50c8-8 24-8 34 0 8 8 8 24 0 34l-50 50c-3 0-3 3 0 3z"/>
    </symbol>
  
    <symbol id="icon-close" viewBox="0 0 512 512">
      <path d="m256 0c-142 0-256 114-256 256 0 142 114 256 256 256 142 0 256-114 256-256 0-140-113-256-256-256z m0 459c-111 0-203-89-203-203 0-110 89-203 203-203 110 0 203 90 203 203 0 113-90 203-203 203z m37-198l0-2 50-50c8-8 8-24 0-35-8-8-24-8-34 0l-50 50-3 0-50-50c-8-8-24-8-34 0-8 8-8 24 0 35l50 50 0 2-50 50c-8 8-8 24 0 35 8 7 24 7 34 0l50-51 3 0 50 51c8 7 24 7 34 0 8-8 8-24 0-35z"/>
    </symbol>
  
    <symbol id="icon-student" viewBox="0 0 512 512">
      <path d="m340 281c42-27 69-74 69-127 0-85-69-154-154-154-85 0-152 69-152 153 0 52 27 100 69 127-84 35-144 116-144 212 0 12 10 20 21 20 10 0 20-9 20-20 0-103 84-185 185-185 101 0 185 83 185 185 0 12 10 20 20 20 11 0 21-9 21-20 4-96-56-177-140-211z m-85-16c-60 0-110-50-110-111 0-61 50-111 110-111 61 0 111 50 111 111 0 61-49 111-111 111z"/>
    </symbol>
  
    <symbol id="icon-student-group" viewBox="0 0 512 512">
      <path d="m463 245c9-10 15-24 15-40 0-32-27-60-59-60-33 0-60 28-60 60 0 16 7 30 16 40-15 8-27 20-36 34-9-8-19-14-30-20 16-14 27-35 27-58 0-43-36-79-79-79-42 0-78 36-78 79 0 23 10 44 27 58-11 6-22 12-32 21-8-15-21-27-36-36 9-10 16-24 16-40 0-32-27-59-60-59-32 0-60 27-60 60 0 16 6 30 15 40-29 16-49 47-49 82 0 9 7 16 16 16 9 0 16-6 16-16 0-34 28-62 62-62 26 0 50 17 59 41-13 19-21 44-21 69 0 8 7 16 16 16 9 0 16-7 16-16 0-52 43-95 95-95 52 0 94 42 94 94 0 8 6 16 15 16 10 0 16-7 16-16 0-26-8-50-21-71 9-23 32-39 58-39 34 0 62 28 62 62 0 9 7 16 16 16 9 0 16-6 16-16-3-34-23-65-52-81z m-370-11c-16 0-29-13-29-29 0-16 13-29 29-29 16 0 29 13 29 29 0 16-13 29-29 29z m164 14c-26 0-47-21-47-47 0-27 21-48 47-48 27 0 48 21 48 48 0 26-21 47-48 47z m162-14c-16 0-29-13-29-29 0-16 13-29 29-29 16 0 29 13 29 29 0 16-13 29-29 29z"/>
    </symbol>
  
    <symbol id="icon-login-train" viewBox="0 0 512 512">
      <path d="m170 379l-78 133 19 0 74-126z m152 1l-15 6 74 126 19 0z m-59 112l-124 0-8 13 231 0-8-13z m-32-37l-71 0-8 14 189 0-8-14z m0-22l89 0-8-14-131 0-8 14z m-61-54l-78 133m230-132l-15 6 74 126 19 0z m42-120l0-82c0-7-4-13-10-16l0-71c0-5-4-9-9-9l-75-11c-2-12-11-21-23-21-12 0-22 9-24 21l-74 11c-5 0-9 4-9 9l0 71c-7 2-11 8-11 16l0 82c-2 1-4 3-4 6l0 55c0 4 48 80 48 80l146 0c0 0 48-76 48-80l0-55c0-3-1-5-3-6z m-20-47c0 3-3 6-6 6-3 0-6-3-6-6 0-3 3-6 6-6 3 0 6 3 6 6z m-3-97l0 45-89 0 0-49z m-14 97c0 8-6 14-14 14-7 0-14-6-14-14 0-7 7-14 14-14 8 0 14 7 14 14z m-80-156c9 0 17 7 17 17 0 10-8 18-17 18-10 0-18-8-18-18 0-10 8-17 18-17z m-95 59l88-4 0 49-88 0z m45 97c0 8-6 14-14 14-7 0-14-6-14-14 0-7 7-14 14-14 8 0 14 7 14 14z m-33 0c0 3-2 6-6 6-3 0-5-3-5-6 0-3 2-6 5-6 4 0 6 3 6 6z m-26 38l218 0 0 8-218 0z m54 132l-8 0 0-40 8 0z m14 0l-7 0 0-40 7 0z m14 0l-7 0 0-40 7 0z m14 0l-8 0 0-40 7 0 0 40z m33 0l-7 0 0-40 7 0z m14 0l-8 0 0-40 8 0z m14 0l-8 0 0-40 8 0z m14 0l-8 0 0-40 8 0z m51-80l-93 0 0-4-41 0 0 4-94 0 0-8 228 0 0 8z m-114-303c-136 0-246 110-246 246 0 86 45 161 111 205l8-13c-62-42-103-112-103-192 0-127 103-230 230-230 127 0 230 103 230 230 0 80-41 150-103 192l8 13c66-44 110-119 110-205 1-136-109-246-245-246z"/>
    </symbol>
  
    <symbol id="icon-end-session" viewBox="0 0 512 512">
      <path d="m266 0l-19 0c-138 5-247 118-247 256 0 141 115 256 256 256 141 0 256-115 256-256 0-138-109-251-246-256z m-10 492c-130 0-237-106-237-237 0-131 107-236 237-236 130 0 237 106 237 237 0 131-107 236-237 236z m149-102l-135-134 135-135c4-4 4-10 0-14-4-4-10-4-14 0l-135 135-134-135c-4-4-10-4-14 0-4 4-4 10 0 14l134 134-134 135c-4 4-4 10 0 14 4 4 10 4 14 0l134-134 135 135c4 4 10 4 14 0 4-4 4-11 0-15z"/>
    </symbol>
  
</svg>
