<?xml version="1.0" encoding="utf-8"?>
<!-- Generator: Adobe Illustrator 18.1.1, SVG Export Plug-In . SVG Version: 6.00 Build 0)  -->
<svg version="1.1" id="Layer_1" xmlns="http://www.w3.org/2000/svg" xmlns:xlink="http://www.w3.org/1999/xlink" x="0px" y="0px"
	 viewBox="0 0 896 1160.4" enable-background="new 0 0 896 1160.4" xml:space="preserve">
<g>
	<g>
		<g id="_x31_011-notepad-selected_x40_2x.png_8_">
			<g>
				<path fill="#FFFFFF" d="M855.4,81.4h-61.1V20.3C794.3,9.1,785.2,0,774,0c-11.2,0-20.3,9.1-20.3,20.3v61.1H631.5V20.3
					c0-11.2-9.1-20.3-20.3-20.3c-11.2,0-20.3,9.1-20.3,20.3v61.1H468.6V20.3c0-11.2-9.1-20.3-20.3-20.3C437.2,0,428,9.1,428,20.3
					v61.1H305.8V20.3c0-11.2-9.1-20.3-20.3-20.3s-20.3,9.1-20.3,20.3v61.1H143V20.3C143,9.1,133.9,0,122.7,0s-20.3,9.1-20.3,20.3
					v61.1H40.8C18.2,81.4,0,99.7,0,122.2v997.4c0,22.6,18.2,40.8,40.8,40.8h814.3c22.6,0,40.8-18.2,40.8-40.8V122.2
					C896,99.7,877.7,81.4,855.4,81.4z"/>
			</g>
		</g>
	</g>
</g>
</svg>
