<?xml version="1.0" encoding="utf-8"?>
<!-- Generator: Adobe Illustrator 18.1.1, SVG Export Plug-In . SVG Version: 6.00 Build 0)  -->
<svg version="1.1" id="Layer_1" xmlns="http://www.w3.org/2000/svg" xmlns:xlink="http://www.w3.org/1999/xlink" x="0px" y="0px"
	 viewBox="0 0 322 322" enable-background="new 0 0 322 322" xml:space="preserve">
<g>
	<g opacity="0.15">
		<circle fill="#010101" cx="165.3" cy="94.6" r="25.5"/>
		<rect x="128.5" y="126.5" fill="#010101" width="73.6" height="50.6"/>
		<path fill="#010101" d="M140.2,168.2L140.2,168.2c-6,1.8-10.1,7.6-13.7-6.6L95.7,56.1c-1.6-5.4,2-11.2,8-12.9l0,0
			c6-1.8,12.2,1.2,13.7,6.6l30.8,105.6C149.8,160.7,146.2,166.5,140.2,168.2z"/>
		<path fill="#010101" d="M234.4,188H94.3c-1.7,0-3-1.3-3-3v-1.2c0-1.7,1.3-3,3-3h140.1c1.7,0,3,1.3,3,3v1.2
			C237.4,186.6,236.1,188,234.4,188z"/>
		<path fill="#010101" d="M108.9,273.6v-89.9c0-1.7,1.3-3,3-3h1.2c1.7,0,3,1.3,3,3v89.9c0,1.7-1.3,3-3,3h-1.2
			C110.3,276.6,108.9,275.2,108.9,273.6z"/>
		<path fill="#010101" d="M214.1,273.6v-89.9c0-1.7,1.3-3,3-3h1.2c1.7,0,3,1.3,3,3v89.9c0,1.7-1.3,3-3,3h-1.2
			C215.4,276.6,214.1,275.2,214.1,273.6z"/>
		<path fill="#010101" d="M149.4,279.8h-5.4c-7.2,0-13.1-5.9-13.1-13.1v-62.2c0-7.2,5.9-13.1,13.1-13.1h5.4
			c7.2,0,13.1,5.9,13.1,13.1v62.2C162.6,273.9,156.7,279.8,149.4,279.8z"/>
		<path fill="#010101" d="M187.1,279.8h-5.4c-7.2,0-13.1-5.9-13.1-13.1v-62.2c0-7.2,5.9-13.1,13.1-13.1h5.4
			c7.2,0,13.1,5.9,13.1,13.1v62.2C200.2,273.9,194.3,279.8,187.1,279.8z"/>
		<path fill="#010101" d="M222.1,163.5l-3.1,2.3c-4.1,3.1-10.1,2.3-13.2-1.8l-15.7-20.8c-3.1-4.1-2.3-10.1,1.8-13.2l3.1-2.3
			c4.1-3.1,10.1-2.3,13.2,1.8l15.7,20.8C227.1,154.5,226.2,160.4,222.1,163.5z"/>
		<path fill="#010101" d="M188.1,177.8l-2.3-3.1c-3.1-4.1-2.3-10.1,1.8-13.2l20.8-15.7c4.1-3.1,10.1-2.3,13.2,1.8l2.3,3.1
			c3.1,4.1,2.3,10.1-1.8,13.2l-20.8,15.7C197.1,182.7,191.2,181.9,188.1,177.8z"/>
		<g id="pencil_2_">
			<g>
				<path fill="#FFFFFF" d="M197.1,146.3l0.7,0.4l4.1,2.5l0.7,0.4l0.4-0.7l0.8-1.4l0.4-0.7c0.2-0.4,0.1-0.9-0.3-1.1l-4.1-2.5
					c-0.4-0.2-0.9-0.1-1.1,0.3l-0.4,0.7l-0.8,1.4L197.1,146.3z"/>
				
					<rect x="183.4" y="155" transform="matrix(0.5241 -0.8517 0.8517 0.5241 -42.6762 240.1568)" fill="#FFFFFF" width="20.3" height="6.5"/>
				<path fill="#FFFFFF" d="M184.4,166.9l-1,7.3c0,0.3,0.1,0.4,0.4,0.2l6.1-4.2L184.4,166.9z"/>
			</g>
		</g>
	</g>
	<path opacity="0.15" fill="#231F20" d="M161,0C72.1,0,0,72.1,0,161s72.1,161,161,161S322,250,322,161S250,0,161,0z M161,312.6
		C77.3,312.6,9.4,244.7,9.4,161S77.3,9.4,161,9.4S312.6,77.3,312.6,161S244.7,312.6,161,312.6z"/>
</g>
</svg>
