<?xml version="1.0" encoding="utf-8"?>
<!-- Generator: Adobe Illustrator 18.1.1, SVG Export Plug-In . SVG Version: 6.00 Build 0)  -->
<svg version="1.1" id="Layer_1" xmlns="http://www.w3.org/2000/svg" xmlns:xlink="http://www.w3.org/1999/xlink" x="0px" y="0px"
	 viewBox="0 0 524.1 244.8" enable-background="new 0 0 524.1 244.8" xml:space="preserve">
<text transform="matrix(0.992 -0.1266 0.1266 0.992 16.8058 195.6238)" fill="#E57D25" font-family="'Bira-PERSONALUSEONLY'" font-size="141.6693">Notepad</text>
<g>
	<g>
		<path fill="#242525" d="M73.1,11.1L54.7,6.6c-0.1,0-0.1,0-0.2,0l-18.4,4.5c-0.3,0.1-0.3,0.5,0,0.6l18.4,4.9c0.1,0,0.1,0,0.2,0
			l18.5-4.9C73.4,11.6,73.4,11.2,73.1,11.1z"/>
	</g>
	<path fill="#242525" d="M51.7,19.3l3.1,0.7l2.8-0.7v29.4h-5.9V19.3z"/>
	<path fill="#242525" d="M105.5,48.6c-3.7,1.1-6.4,0.3-7-2.7c-0.9,1.9-3,3.5-6.3,3.5c-5.4,0-7.2-3.8-7.2-7.6c0-6.7,4.8-8.2,12.7-9.3
		v-2.5c0-4.1-1.2-5.6-3.5-5.6c-3.6,0-3.4,3.1-3.1,6.1l-5,0.4c-1-6.1,1.4-11,8.8-11c8.5,0,8.4,6.9,8.4,13.4v10c0,1.5,0.3,2,2,1.6
		L105.5,48.6z M97.8,36.4c-5.4,0.4-7,1.6-7,4.9c0,1.9,0.9,3.9,3.2,3.9c2.2,0,3.8-1.9,3.8-4.4V36.4z"/>
	<path fill="#242525" d="M82.8,39.1c-0.3,8.2-4.7,10.3-9,10.3c-8.1,0-10-6.2-10-14.6c0-9.4,3.3-15,10.5-15c6.9,0,9.3,5.7,8.5,15.9
		H69.7c0,5.4,0.7,9,4.4,9c2.5,0,3.5-1.6,3.8-5.8L82.8,39.1z M77.2,31.6c0.2-4.7-0.7-7.3-3.5-7.3c-3.1,0-3.9,2.9-4,7.3H77.2z"/>
	<path fill="#242525" d="M168.4,39.1c-0.3,8.2-4.7,10.3-9,10.3c-8.1,0-10-6.2-10-14.6c0-9.4,3.3-15,10.5-15c6.9,0,9.3,5.7,8.5,15.9
		h-13.1c0,5.4,0.7,9,4.4,9c2.5,0,3.5-1.6,3.8-5.8L168.4,39.1z M162.9,31.6c0.2-4.7-0.7-7.3-3.5-7.3c-3.1,0-3.9,2.9-4,7.3H162.9z"/>
	<path fill="#242525" d="M184.8,25.2v-5.1c-0.6-0.2-1.3-0.3-2.1-0.3c-3.8,0-5.6,2.9-6.2,4.5h-0.1l-0.2-3.9h-5v28.3h5.6V34.1
		c0-5.5,1.2-8.8,4-9.6C183.3,23.7,184.8,25.2,184.8,25.2z"/>
	<path fill="#242525" d="M40.5,24.2c0.8-0.3,1.4-1,1.4-1.9c0-0.8-0.5-1.5-1.2-1.9l0-8.5h-1.6v8.5c-0.8,0.3-1.3,1-1.3,1.9
		c0,0.9,0.6,1.7,1.4,1.9c-0.9,0.3-1.6,1.2-1.6,2.2v7h1.1v-6.2c0-0.2,0.1-0.3,0.3-0.3c0.2,0,0.3,0.1,0.3,0.3v6.2h1.2v-6.2
		c0-0.2,0.1-0.3,0.3-0.3c0.2,0,0.3,0.1,0.3,0.3v6.2h1.2v-7C42.1,25.4,41.4,24.5,40.5,24.2z"/>
	<g>
		<path fill="#242525" d="M120.8,30.3c-0.2-4.1-1.1-6.1-3.8-6.1c-3.5,0-4.3,3.5-4.3,10.7c0,6,0.7,9.6,4.5,9.6c2.5,0,3.4-1.6,3.6-5.8
			l5.1,0.3c-0.3,8.2-4.6,10.3-9.1,10.3c-8.1,0-10-6.3-10-14.5c0-9.7,3.3-15.3,10.5-15.3c6.5,0,8.6,4.5,8.6,10.5L120.8,30.3z"/>
		<path fill="#242525" d="M147.1,48.6h-5.5V29.5c0-3.1-0.6-5.2-3.3-5.2c-4.1,0-4.5,4.2-4.5,8.7v15.6h-5.6V8.3h5.6v15.2h0.1
			c0.7-1.6,2.5-4,6.3-4c5,0,6.9,3.1,6.9,9.2V48.6z"/>
	</g>
	<path fill="#242525" d="M105.9,44.6c-1,0.3-1.5,0.6-2.2,0c-2.3-1.7-3.6,4.2-1.9,4.3c2.5,0.1,4.6-0.4,5.9-1
		C106.8,47,106.3,46.2,105.9,44.6z"/>
</g>
</svg>
