<?xml version="1.0" encoding="utf-8"?>
<!-- Generator: Adobe Illustrator 18.1.1, SVG Export Plug-In . SVG Version: 6.00 Build 0)  -->
<svg version="1.1" id="Layer_1" xmlns="http://www.w3.org/2000/svg" xmlns:xlink="http://www.w3.org/1999/xlink" x="0px" y="0px"
	 viewBox="0 0 352.1 59.8" enable-background="new 0 0 352.1 59.8" xml:space="preserve">
<g>
	<g>
		<g>
			<path fill="#FFFFFF" d="M52,6.4L26.2,0C26.1,0,26,0,26,0L0.3,6.3c-0.4,0.1-0.4,0.7,0,0.8L26,14c0.1,0,0.2,0,0.3,0L52,7.2
				C52.4,7.1,52.4,6.5,52,6.4z"/>
		</g>
		<path fill="#FFFFFF" d="M22,17.8l4.3,1l4-1v41.1H22V17.8z"/>
		<path fill="#FFFFFF" d="M97.4,58.8c-5.2,1.5-8.9,0.4-9.8-3.8c-1.2,2.7-4.2,4.9-8.8,4.9c-7.6,0-10-5.3-10-10.7
			c0-9.3,6.7-11.5,17.7-13v-3.5c0-5.7-1.7-7.8-5-7.8c-5,0-4.7,4.4-4.4,8.5l-7,0.5c-1.5-8.5,2-15.4,12.4-15.4
			c11.8,0,11.8,9.7,11.8,18.8v14c0,2.1,0.5,2.8,2.8,2.3L97.4,58.8z M86.5,41.7c-7.6,0.6-9.8,2.2-9.8,6.8c0,2.6,1.2,5.4,4.5,5.4
			c3.1,0,5.3-2.7,5.3-6.1V41.7z"/>
		<path fill="#FFFFFF" d="M65.5,45.5c-0.4,11.4-6.6,14.4-12.6,14.4c-11.3,0-14-8.6-14-20.4c0-13.1,4.6-21,14.7-21
			c9.6,0,13.1,8,11.9,22.2H47.2c0,7.5,0.9,12.6,6.1,12.6c3.5,0,5-2.3,5.3-8.2L65.5,45.5z M57.7,35.1c0.2-6.6-1-10.2-5-10.2
			c-4.3,0-5.4,4.1-5.6,10.2H57.7z"/>
		<path fill="#FFFFFF" d="M185.3,45.5c-0.4,11.4-6.6,14.4-12.6,14.4c-11.3,0-14-8.6-14-20.4c0-13.1,4.6-21,14.7-21
			c9.6,0,13.1,8,11.9,22.2H167c0,7.5,0.9,12.6,6.1,12.6c3.5,0,5-2.3,5.3-8.2L185.3,45.5z M177.5,35.1c0.2-6.6-1-10.2-5-10.2
			c-4.3,0-5.4,4.1-5.6,10.2H177.5z"/>
		<path fill="#FFFFFF" d="M208.2,26v-7.1c-0.9-0.3-1.9-0.5-3-0.5c-5.3,0-7.9,4-8.7,6.3h-0.2l-0.2-5.4h-7v39.5h7.8V38.5
			c0-7.6,1.6-12.3,5.6-13.4C206,24,208.2,26,208.2,26z"/>
		<path fill="#FFFFFF" d="M6.4,24.7c1.1-0.4,1.9-1.5,1.9-2.7c0-1.1-0.7-2.1-1.7-2.6l0-11.9H4.4v11.9c-1.1,0.4-1.8,1.5-1.8,2.7
			c0,1.3,0.8,2.3,2,2.7c-1.3,0.4-2.2,1.6-2.2,3.1v9.8h1.5V29c0-0.2,0.2-0.4,0.4-0.4c0.2,0,0.4,0.2,0.4,0.4v8.6h1.7V29
			c0-0.2,0.2-0.4,0.4-0.4C6.8,28.6,7,28.7,7,29v8.6h1.7v-9.8C8.7,26.3,7.7,25.1,6.4,24.7z"/>
		<g>
			<path fill="#FFFFFF" d="M118.7,33.3c-0.2-5.8-1.5-8.5-5.4-8.5c-4.9,0-6,4.9-6,15c0,8.5,1,13.4,6.2,13.4c3.5,0,4.7-2.3,5.1-8.1
				l7.1,0.4c-0.5,11.4-6.5,14.4-12.8,14.4c-11.3,0-14-8.8-14-20.3c0-13.5,4.6-21.4,14.7-21.4c9.1,0,12,6.3,12.1,14.7L118.7,33.3z"/>
			<path fill="#FFFFFF" d="M155.5,58.9h-7.8V32.1c0-4.4-0.8-7.2-4.6-7.2c-5.7,0-6.2,5.9-6.2,12.2v21.8h-7.8V2.5h7.8v21.2h0.1
				c1-2.3,3.5-5.5,8.8-5.5c7,0,9.7,4.4,9.7,12.8V58.9z"/>
		</g>
		<path fill="#FFFFFF" d="M97.9,53.2c-1.4,0.5-2.1,0.8-3.1,0c-3.2-2.4-5,5.9-2.6,6c3.4,0.2,6.4-0.6,8.3-1.3
			C99.1,56.6,98.4,55.4,97.9,53.2z"/>
	</g>
	<g>
		<path fill="#FFFFFF" d="M229.8,58.9l-9.5-45.1h-0.3v45.1h-7.8V2.6h12.4l9.1,45.7h0.2l8.7-45.7H255v56.3h-7.8V13.7h-0.3l-9.5,45.1
			H229.8z"/>
		<path fill="#FFFFFF" d="M288.1,58.7c-5.2,1.5-9,0.4-9.8-3.8c-1.2,2.7-4.2,4.9-8.8,4.9c-7.6,0-10-5.4-10-10.7
			c0-9.4,6.7-11.6,17.8-13v-3.5c0-5.7-1.7-7.8-5-7.8c-5.1,0-4.8,4.4-4.4,8.5l-7.1,0.5c-1.5-8.6,2-15.5,12.4-15.5
			c11.9,0,11.8,9.7,11.8,18.9v14c0,2.1,0.5,2.8,2.8,2.3L288.1,58.7z M277.2,41.6c-7.6,0.6-9.9,2.2-9.9,6.8c0,2.6,1.2,5.4,4.5,5.4
			c3.1,0,5.4-2.7,5.4-6.1V41.6z"/>
		<path fill="#FFFFFF" d="M338.1,45.4c-0.4,11.5-6.6,14.4-12.6,14.4c-11.3,0-14-8.7-14-20.5c0-13.2,4.6-21.1,14.7-21.1
			c9.7,0,13.1,8,12,22.3h-18.4c0,7.5,0.9,12.6,6.1,12.6c3.5,0,5-2.3,5.3-8.2L338.1,45.4z M330.3,35c0.2-6.7-1-10.3-5-10.3
			c-4.3,0-5.4,4.1-5.6,10.3H330.3z"/>
		<g>
			<path fill="#FFFFFF" d="M346.6,17.6c-3.8,0-5.5-2.6-5.5-5.9c0-3.8,2.5-6.2,5.5-6.2c3.4,0,5.5,2.4,5.5,5.9
				C352.1,15.1,349.9,17.6,346.6,17.6z M346.6,6.9c-2.4,0-4.1,1.8-4.1,4.8c0,2.9,1.4,4.6,4.1,4.6c2.7,0,4.1-1.8,4.1-4.7
				C350.7,8.5,349.1,6.9,346.6,6.9z M349.4,14.7H348l-1.3-2.5h-0.8v2.5h-1.2V8.3h2.2c1.6,0,2,0.9,2,1.8c0,0.9-0.4,1.4-1.1,1.7
				L349.4,14.7z M346.3,11.2c0.7,0,1.3-0.1,1.3-1c0-0.6-0.4-0.8-1.1-0.8h-0.6v1.8H346.3z"/>
		</g>
		<path fill="#FFFFFF" d="M309.7,52.3c-1.4,0.5-3.2,1-4.2,1c-3.6,0-4.5-1.7-4.5-6.6V25.3h8v-6.1h-8V9l-7.8,2.5v7.7h-4.6v6.1h4.6V48
			c0,8.6,3.7,11.8,10.7,11.8c3.4,0,7-1.3,9-2.1C311.5,56.4,310.4,54.6,309.7,52.3z"/>
	</g>
</g>
</svg>
