<?xml version="1.0" encoding="utf-8"?>
<!-- Generator: Adobe Illustrator 18.1.1, SVG Export Plug-In . SVG Version: 6.00 Build 0)  -->
<svg version="1.1" id="Layer_1" xmlns="http://www.w3.org/2000/svg" xmlns:xlink="http://www.w3.org/1999/xlink" x="0px" y="0px"
	 viewBox="23.4 255.5 564.5 231.2" enable-background="new 23.4 255.5 564.5 231.2" xml:space="preserve">
<g enable-background="new    ">
	<path fill="#E57D25" d="M57.3,338.9c0.5-2,1.5-3.2,3-3.6c1.5-0.5,3.2-0.4,5.1,0.3c1.9,0.6,3.9,1.7,5.8,3.2c2,1.5,3.7,3.2,5.3,5.2
		s2.8,4,3.7,6.2c0.9,2.2,1.2,4.3,0.9,6.3c-0.3,1.8-1.7,5.8-4.1,12c-2.4,6.1-5.5,13.5-9,21.9c7.1-11.1,13.6-20.3,19.4-27.5
		c5.8-7.2,10.8-12.9,15.1-17.3c4.9-5.1,9.3-8.9,13.2-11.5c1.2-0.8,2.8-1.2,4.6-1c1.9,0.2,3.8,0.7,5.7,1.6c2,0.9,3.9,2.1,5.9,3.6
		c2,1.5,3.7,3.1,5.1,4.9c1.5,1.8,2.6,3.7,3.4,5.7c0.8,2,1.1,3.8,0.9,5.6c-0.2,1.6-1.2,4.3-2.9,8c-1.7,3.8-3.8,8.3-6.4,13.5
		c-2.6,5.2-5.4,10.9-8.4,17c-3.1,6.1-6,12.3-8.9,18.4c-2.9,6.2-5.5,12.1-7.9,17.9c-2.4,5.8-4.2,10.9-5.5,15.4
		c-1.3,4.5-1.9,8.1-1.7,10.8c0.2,2.7,1.4,4.1,3.8,4.1c3.6,0.1,6.9-1,10.1-3.3c3.2-2.3,6-5.1,8.4-8.4c2.5-3.3,4.6-6.8,6.3-10.4
		c1.7-3.6,3-6.7,3.7-9.2c0.8-2.5,1.9-4.3,3.2-5.4c1.4-1.1,2.7-1.4,3.9-1.1c1.3,0.3,2.2,1.3,2.9,2.9c0.6,1.6,0.6,3.8-0.1,6.7
		c-0.7,2.9-2.2,6.4-4.3,10.7c-2.1,4.3-4.9,8.5-8.3,12.6c-3.4,4.1-7.4,7.8-11.9,10.9c-4.5,3.2-9.6,5.1-15.2,5.9
		c-5.9,0.8-10.2-0.6-13-4.2c-2.7-3.5-4.3-8.5-4.8-14.8c-0.5-6.3,0-13.6,1.3-21.9c1.3-8.3,3.1-16.8,5.4-25.5
		c2.3-8.7,4.8-17.3,7.6-25.6c2.8-8.4,5.3-15.8,7.6-22.3c-4.1,4.3-9,10-14.5,17.2c-5.5,7.2-11.4,15.3-17.5,24.4
		c-6.1,9.1-12.3,19-18.5,29.6c-6.2,10.6-12,21.5-17.5,32.7c-3,1.9-5,2.3-6.2,1c-1.2-1.3-0.5-4.6,2.1-9.9
		c6.1-12.8,12.1-24.2,17.7-34.4c5.7-10.1,11.1-19.2,16.3-27.2c-2.2,5.2-4.5,10.6-6.9,16.3c-2.4,5.7-4.8,11.4-7.2,17.1
		c-2.4,5.7-4.7,11.2-6.8,16.5c-2.2,5.3-4.1,10.2-5.7,14.7c-1.7,4.5-3,8.4-4,11.9c-1,3.4-1.6,6-1.7,7.8c-0.2,2.1-0.9,3.7-2.2,4.6
		c-1.3,0.9-2.8,1.3-4.3,1s-2.9-1.1-4.2-2.5c-1.2-1.4-1.8-3.4-1.7-6c0.1-6.6,0.9-14.2,2.4-22.8c1.6-8.6,3.5-17.6,5.9-26.9
		c2.4-9.3,4.9-18.6,7.7-27.8c2.8-9.2,5.4-17.7,7.9-25.4c2.5-7.7,4.7-14.2,6.5-19.5C55.7,344,56.8,340.6,57.3,338.9z"/>
	<path fill="#E57D25" d="M167.6,378.2c1.2-0.3,2.2-0.5,3.1-0.6c0.9-0.2,1.7-0.2,2.6-0.3c5.9-0.8,10.9-0.5,15,0.7
		c4.1,1.2,7.4,3.1,10,5.8c2.6,2.7,4.4,5.9,5.4,9.7c1,3.8,1.4,7.9,1.1,12.3c-0.3,4.4-1.2,8.9-2.7,13.7c-1.5,4.8-3.5,9.3-6.1,13.8
		c4-1.4,7.2-3.4,9.4-6c2.2-2.6,4-5.5,5.2-8.9c0.7-2.1,1.8-3.6,3.2-4.6c1.4-1,2.7-1.3,4-1.2c1.3,0.2,2.3,0.9,3,2.1
		c0.7,1.2,0.8,3,0.2,5.2c-0.6,2.3-1.7,4.8-3.4,7.5c-1.7,2.7-3.8,5.3-6.5,7.7c-2.7,2.4-5.9,4.5-9.7,6.3c-3.8,1.8-8.2,2.9-13.2,3.4
		c-4.7,5.6-10.2,10.3-16.5,14c-6.3,3.7-13.1,5.9-20.5,6.4c-5.3,0.3-9.5-0.9-12.7-3.7c-3.2-2.8-5.4-6.6-6.7-11.4
		c-1.3-4.8-1.6-10.2-1-16.4c0.6-6.1,2.1-12.3,4.4-18.6c2.3-6.2,5.5-12.3,9.5-18.1c4-5.8,8.8-10.7,14.3-14.6
		C161.4,380.6,164.2,379.2,167.6,378.2z M148.9,408.6c-2.7,5-4.7,10.3-6.2,15.8c-1.4,5.5-2.1,10.5-2,15c0.1,4.5,1,8.1,2.7,10.9
		c1.7,2.8,4.4,3.9,8,3.5c3.2-0.4,6.1-1.7,8.9-3.9c2.8-2.2,5.3-5,7.5-8.4c-6.2-3.1-10.9-7.7-14-13.8
		C150.8,421.7,149.1,415.3,148.9,408.6z M172.5,433c2.2-5.1,4-10.3,5.2-15.8c1.2-5.5,1.7-10.5,1.6-15c-0.1-4.5-1-8.1-2.5-10.8
		c-1.6-2.7-3.9-3.7-7.1-3.1c-2.4,0.6-4.3,2-5.8,4c-1.5,2-2.7,4.5-3.4,7.3c-0.8,2.8-1.1,5.9-1.1,9.1c0,3.3,0.5,6.5,1.6,9.6
		c1,3.2,2.5,6,4.4,8.6C167.2,429.6,169.6,431.6,172.5,433z"/>
	<path fill="#E57D25" d="M291,329.8c1.7-0.9,3-1,3.9-0.3c0.9,0.7,1.5,1.7,1.7,3.2c0.2,1.5,0.2,3.3-0.2,5.4c-0.3,2.1-0.9,4.2-1.7,6.2
		c-0.8,2-1.8,3.9-3,5.5c-1.2,1.6-2.5,2.7-4,3.3c-0.8,0.3-2.4,0.7-4.5,1.2c-2.2,0.5-4.8,1.1-7.8,1.7c-3,0.7-6.4,1.3-10.2,2
		c-3.7,0.7-7.6,1.5-11.6,2.3c-2.5,5.5-5.2,11.4-8,17.6c-2.8,6.2-5.5,12.4-8.1,18.5c-2.6,6.1-4.8,12-6.9,17.6
		c-2,5.6-3.5,10.5-4.4,14.8c-1,4.3-1.3,7.7-0.9,10.3c0.3,2.6,1.6,3.9,3.7,4.1c2.5,0.1,4.8-0.9,6.9-3.1c2.2-2.2,4.1-4.8,5.7-8
		c1.7-3.2,3.1-6.5,4.4-10c1.3-3.5,2.3-6.5,2.9-9c0.8-2.5,1.9-4.3,3.2-5.4c1.4-1.1,2.7-1.5,3.9-1.2c1.3,0.3,2.2,1.2,2.9,2.8
		c0.6,1.6,0.6,3.8-0.1,6.7c-0.6,2.9-1.8,6.5-3.4,10.8c-1.6,4.3-3.7,8.5-6.3,12.6c-2.6,4.1-5.6,7.7-9.1,10.7c-3.5,3-7.6,4.6-12.2,4.9
		c-4.6,0.3-8.3-0.8-10.9-3.1c-2.6-2.3-4.5-5.6-5.6-9.9c-1.1-4.3-1.6-9.2-1.4-15c0.2-5.7,0.8-11.9,1.9-18.5
		c1.1-6.6,2.5-13.4,4.3-20.5c1.8-7.1,3.7-14,5.7-20.8c-3.2,0.7-6.3,1.5-9.1,2.3c-2.9,0.8-5.4,1.6-7.6,2.4c-2.1,0.7-3.9,1-5.2,0.7
		c-1.3-0.2-2.1-0.7-2.4-1.5c-0.3-0.8-0.1-1.8,0.5-3c0.7-1.2,2-2.4,3.8-3.5c3.8-2.5,7.7-4.6,11.7-6.4c4-1.8,8.2-3.4,12.6-4.9
		c1.6-4.9,3.2-9.5,4.7-13.9c1.6-4.4,3-8.3,4.2-11.8c1.3-3.5,2.4-6.4,3.3-8.8c0.9-2.4,1.6-4.1,2-5c0.7-2,1.9-3.2,3.5-3.8
		c1.6-0.5,3.4-0.5,5.4,0.1c2,0.6,4,1.7,6.1,3.1c2.1,1.5,3.9,3.1,5.6,5c1.6,1.9,2.9,4,3.9,6.2c1,2.2,1.3,4.3,1,6.4
		c-0.1,0.9-0.5,2.3-1.3,4.3c-0.8,1.9-1.7,4.2-2.8,6.9c4.7-1.6,9.4-3.4,14.2-5.3C280.7,334.9,285.7,332.6,291,329.8z"/>
	<path fill="#E57D25" d="M294.5,411.4c-5.1,2.5-9.6,4.1-13.5,4.7c-3.9,0.6-7.3,0.8-10.2,0.6c-0.6,3.1-1,6-1.1,8.7
		c-0.1,2.7,0.2,5.1,1,7c0.8,2,1.9,3.4,3.5,4.4c1.6,1,3.7,1.3,6.3,0.9c5.8-0.7,10.9-2.4,15.2-5c4.3-2.6,8-5.6,11-9
		c3-3.4,5.4-6.8,7.2-10.3c1.8-3.5,3-6.5,3.7-9.1c0.8-2.5,1.9-4.3,3.2-5.4c1.4-1.1,2.7-1.5,3.9-1.2c1.3,0.3,2.2,1.2,2.9,2.8
		c0.6,1.6,0.6,3.8-0.1,6.7c-0.6,2.9-2,6.4-4.2,10.7c-2.2,4.3-5.1,8.5-8.8,12.6c-3.7,4.1-8.2,7.8-13.5,11.1
		c-5.3,3.2-11.5,5.3-18.5,6.2c-8.2,1-14.9-0.2-20.2-3.7c-5.2-3.5-9-8.3-11.2-14.3c-2.2-6.1-3-12.8-2.2-20.1
		c0.7-7.4,2.9-14.5,6.5-21.3c3.6-6.8,8.6-12.7,15-17.7c6.4-5,14.2-8.1,23.4-9.2c6-0.8,10.7-0.3,14.2,1.3c3.4,1.6,5.8,4,7.1,7
		c1.3,3.1,1.8,6.6,1.3,10.6c-0.5,4-1.7,8-3.7,11.9c-2,3.9-4.6,7.6-7.7,11C301.9,406.8,298.4,409.5,294.5,411.4z M289.8,403.2
		c3.9-2.2,7.2-5.1,9.7-8.7c2.5-3.6,4.2-7.1,5.1-10.6c0.8-3.4,0.8-6.4,0-8.8c-0.9-2.4-2.7-3.4-5.4-3.1c-2.2,0.3-4.5,1.5-6.9,3.6
		c-2.4,2.1-4.7,4.9-7,8.2c-2.3,3.3-4.4,7-6.4,11c-2,4-3.7,8.1-5.2,12.3c2.2,0,4.7-0.2,7.5-0.8C283.9,405.9,286.8,404.8,289.8,403.2z
		"/>
	<path fill="#E57D25" d="M395.6,394.5c0.9-2.5,2.1-4.2,3.6-5.3c1.5-1.1,2.8-1.4,4.1-1.1c1.3,0.3,2.2,1.3,2.8,2.8
		c0.6,1.5,0.4,3.7-0.6,6.5c-1.2,3.6-2.9,7.2-5.2,10.8c-2.3,3.6-4.9,7-7.8,10.2c-2.9,3.2-6.1,6.2-9.5,9c-3.4,2.8-7,5.1-10.6,6.9
		c-3.7,1.9-7.3,3.2-10.9,3.9c-3.6,0.7-7,0.8-10.2,0.2c-1.6-0.2-2.9-0.8-4-1.7c-1.1-0.9-1.9-1.8-2.4-2.9c-0.6-1-0.9-2.1-1-3.1
		c-0.1-1,0-1.9,0.2-2.6s0.7-1.3,1.3-1.8c0.6-0.5,1.3-1.1,2.2-1.7c0.9-0.6,1.8-1.4,2.8-2.3c1-0.9,2.1-2.2,3.2-3.7
		c3.5-5.1,6.2-10.3,8.3-15.5c2.1-5.2,3.6-10.1,4.5-14.7c1-4.6,1.6-8.6,1.8-12c0.2-3.4,0.4-5.8,0.4-7.1c-1.4,0.7-3,2.3-5.1,4.7
		c-2,2.4-4.3,5.3-6.8,8.7c-2.5,3.4-5.1,7.2-7.8,11.4c-2.7,4.2-5.3,8.4-7.9,12.8c-2.6,4.3-5,8.6-7.3,12.9c-2.3,4.3-4.3,8.2-5.9,11.8
		c-2.9,8.4-5.6,16.8-8,25.2c-2.4,8.4-4,16.5-4.9,24.3c-0.3,2.1-1,3.7-2.2,4.6c-1.2,0.9-2.5,1.3-4,1c-1.4-0.3-2.7-1.1-3.8-2.5
		c-1.1-1.4-1.6-3.4-1.5-6c0.1-6.6,0.7-13.9,2-21.9c1.3-8,3-16.2,5-24.6c2-8.4,4.2-16.6,6.6-24.7c2.4-8.1,4.6-15.5,6.8-22.1
		c2.2-6.7,4-12.4,5.7-17.1c1.6-4.7,2.7-7.9,3.1-9.5c0.9-2.9,2.4-4.4,4.7-4.7c2.2-0.2,4.5,0.4,6.8,1.9c2.3,1.5,4.2,3.6,5.8,6.4
		c1.6,2.8,2.2,5.7,1.8,8.8c-0.2,1.2-0.8,3.2-1.8,5.9c-1,2.7-2.3,5.9-3.9,9.5c4.1-6.8,8.3-13,12.6-18.9c4.3-5.8,8.3-10.4,12.2-13.8
		c1.7-1.4,3.8-2,6.4-1.8c2.5,0.2,5,1,7.4,2.4c2.4,1.4,4.5,3.2,6.3,5.4c1.8,2.2,2.7,4.6,2.8,7.1c0.2,4-0.4,8.7-1.8,14.2
		c-1.4,5.5-3.3,11-5.7,16.5c-2.5,5.5-5.4,10.8-8.8,15.9c-3.4,5.1-7.2,9.1-11.4,12c2-0.5,4.5-1.5,7.2-3c2.8-1.5,5.5-3.6,8.2-6.1
		c2.7-2.6,5.4-5.6,7.9-9.2C391.9,403.3,394,399.2,395.6,394.5z"/>
	<path fill="#E57D25" d="M445.6,367.9c0.7-2.2,2.3-3.6,4.8-4.3c2.5-0.6,5.1-0.6,7.8,0c2.7,0.7,5,1.9,6.9,3.8
		c1.9,1.9,2.7,4.3,2.3,7.4c-0.3,2-1,4.5-2.1,7.4c-1.1,2.9-2.3,5.8-3.6,8.8c-1.3,3-2.7,6-3.9,8.9c-1.3,2.9-2.3,5.5-3,7.8
		c-0.7,2.3-1,4-0.8,5.2c0.2,1.2,1.1,1.6,2.8,1.3c2.5-0.5,4.8-1.9,6.9-4.1c2.1-2.2,4-4.8,5.8-7.8c1.7-3,3.2-6.1,4.5-9.4
		c1.3-3.3,2.2-6.2,2.9-8.7c0.8-2.5,1.9-4.3,3.2-5.4c1.4-1.1,2.7-1.5,3.9-1.2c1.3,0.3,2.2,1.2,2.9,2.8c0.6,1.6,0.6,3.8-0.1,6.7
		c-0.6,2.9-1.8,6.4-3.4,10.6c-1.6,4.2-3.7,8.3-6.3,12.3c-2.5,4-5.6,7.5-9.2,10.6c-3.6,3.1-7.6,4.9-12.2,5.5
		c-4.7,0.6-8.2-0.7-10.4-3.8c-2.2-3.1-3.7-7.1-4.3-12c-2.4,5.2-5.5,9.7-9.2,13.5c-3.7,3.8-8.1,5.8-13.3,6
		c-5.6,0.3-10.2-0.9-13.8-3.6c-3.6-2.7-6.2-6.2-7.8-10.7c-1.6-4.5-2.3-9.5-1.9-15.3c0.3-5.7,1.6-11.5,3.8-17.3
		c2.2-5.8,5.3-11.5,9.4-16.9c4-5.4,9-10,14.8-13.7c5.9-3.7,12.6-6.4,20.2-8.1c7.6-1.6,16.1-1.6,25.4,0.1c2.2,0.4,3.9,1.3,5.1,2.6
		c1.2,1.3,1.8,2.7,1.8,4c0,1.3-0.7,2.5-2.1,3.4c-1.4,1-3.6,1.3-6.6,1c-5.2-0.6-10-0.1-14.5,1.4c-4.5,1.5-8.6,3.6-12.3,6.4
		c-3.7,2.8-7,6.1-9.8,9.9c-2.8,3.8-5.3,7.7-7.3,11.8c-2,4-3.6,8-4.6,11.9c-1.1,3.9-1.6,7.5-1.7,10.6c-0.1,3.2,0.3,5.8,1.2,7.8
		c0.9,2,2.3,3,4.3,3.1c2.4,0.1,4.5-0.8,6.5-2.8c2-2,3.8-4.7,5.5-7.9c1.7-3.2,3.2-6.8,4.5-10.8c1.3-4,2.5-7.8,3.4-11.5
		c0.5-3.6,1.1-7,1.8-10.1C444.3,372.1,444.9,369.7,445.6,367.9z"/>
	<path fill="#E57D25" d="M560.2,259.6c0.7-2,2-3.2,3.7-3.7c1.7-0.5,3.6-0.4,5.8,0.2c2.1,0.6,4.3,1.7,6.6,3.2
		c2.2,1.5,4.3,3.2,6.1,5.2c1.8,2,3.2,4.1,4.3,6.3c1.1,2.2,1.4,4.3,1.1,6.4c-0.2,1.6-1.3,4.6-3.2,8.9c-1.9,4.4-4.2,9.6-7.1,15.8
		c-2.8,6.2-5.9,13-9.3,20.3c-3.4,7.3-6.7,14.7-10,22.2c-3.3,7.5-6.3,14.7-9.1,21.8c-2.8,7-5,13.3-6.5,18.7
		c-1.6,5.4-2.4,9.8-2.4,13.1c0,3.3,1.1,5.1,3.5,5.2c2.5,0.1,4.8-0.9,6.9-3.1c2.2-2.2,4.1-4.8,5.7-8c1.7-3.2,3.1-6.5,4.4-10
		c1.3-3.5,2.3-6.5,2.9-9c0.8-2.5,1.9-4.3,3.2-5.4c1.4-1.1,2.7-1.5,3.9-1.2c1.3,0.3,2.2,1.2,2.9,2.8c0.6,1.6,0.6,3.8-0.1,6.7
		c-0.6,2.9-1.8,6.5-3.4,10.8c-1.6,4.3-3.7,8.5-6.3,12.6c-2.6,4.1-5.6,7.7-9.1,10.7c-3.5,3-7.6,4.6-12.2,4.9
		c-5.6,0.4-9.7-1.3-12.3-5.2c-2.6-3.8-4.1-9.1-4.5-15.7c-1.4,3.3-2.9,6.4-4.6,9.3c-1.7,2.9-3.7,5.6-5.8,7.9
		c-2.1,2.3-4.5,4.2-7.1,5.7c-2.6,1.4-5.4,2.3-8.5,2.4c-5.9,0.3-10.6-0.9-14.1-3.5c-3.6-2.7-6.1-6.2-7.7-10.6
		c-1.6-4.4-2.2-9.4-1.8-15.1c0.3-5.7,1.5-11.4,3.4-17.1c1.9-5.8,4.6-11.3,8.1-16.6c3.5-5.3,7.6-9.8,12.4-13.5
		c4.8-3.7,10-6.2,15.9-7.7c5.8-1.5,12.1-1.3,18.9,0.5c2.3-8.9,4.9-17.5,7.7-26c2.8-8.5,5.4-16.2,7.9-23.2c2.4-7,4.6-12.9,6.4-17.7
		C558.4,264.1,559.6,261,560.2,259.6z M503.6,407.9c1.9,0.2,3.7-0.4,5.4-1.8c1.7-1.4,3.4-3.3,5-5.6c1.6-2.4,3.1-5.1,4.5-8.1
		c1.4-3,2.7-6.1,3.9-9.3c1.2-3.2,2.2-6.3,3.1-9.4c0.9-3.1,1.7-5.8,2.4-8.2c0.6-3.3,1.2-6.6,2-9.9c0.7-3.3,1.5-6.6,2.3-10
		c-4.6,0.4-8.8,2.2-12.7,5.4c-3.8,3.2-7.2,7.1-10.1,11.6c-2.9,4.5-5.3,9.5-7,14.7c-1.8,5.3-3,10.2-3.6,14.6
		c-0.6,4.5-0.5,8.2,0.3,11.2C499.8,406.2,501.3,407.7,503.6,407.9z"/>
</g>
<g>
	<g>
		<path fill="#242525" d="M85.4,266l-21.5-5.3c-0.1,0-0.1,0-0.2,0L42.2,266c-0.4,0.1-0.4,0.6,0,0.7l21.5,5.7c0.1,0,0.1,0,0.2,0
			l21.6-5.7C85.7,266.6,85.7,266.1,85.4,266z"/>
	</g>
	<path fill="#242525" d="M60.4,275.6l3.6,0.8l3.3-0.8v34.3h-6.9C60.4,309.9,60.4,275.6,60.4,275.6z"/>
	<path fill="#242525" d="M123.2,309.8c-4.3,1.3-7.5,0.4-8.2-3.2c-1.1,2.2-3.5,4.1-7.4,4.1c-6.3,0-8.4-4.4-8.4-8.9
		c0-7.8,5.6-9.6,14.8-10.9v-2.9c0-4.8-1.4-6.5-4.1-6.5c-4.2,0-4,3.6-3.6,7.1l-5.8,0.5c-1.2-7.1,1.6-12.8,10.3-12.8
		c9.9,0,9.8,8.1,9.8,15.6v11.7c0,1.8,0.4,2.3,2.3,1.9L123.2,309.8z M114.2,295.6c-6.3,0.5-8.2,1.9-8.2,5.7c0,2.2,1.1,4.6,3.7,4.6
		c2.6,0,4.4-2.2,4.4-5.1V295.6z"/>
	<path fill="#242525" d="M96.7,298.7c-0.4,9.6-5.5,12-10.5,12c-9.5,0-11.7-7.2-11.7-17c0-11,3.9-17.5,12.3-17.5
		c8.1,0,10.9,6.7,9.9,18.6H81.4c0,6.3,0.8,10.5,5.1,10.5c2.9,0,4.1-1.9,4.4-6.8L96.7,298.7z M90.1,290c0.2-5.5-0.8-8.5-4.1-8.5
		c-3.6,0-4.6,3.4-4.7,8.5C81.4,290,90.1,290,90.1,290z"/>
	<path fill="#242525" d="M196.6,298.7c-0.4,9.6-5.5,12-10.5,12c-9.5,0-11.7-7.2-11.7-17c0-11,3.9-17.5,12.3-17.5
		c8.1,0,10.9,6.7,9.9,18.6h-15.3c0,6.3,0.8,10.5,5.1,10.5c2.9,0,4.1-1.9,4.4-6.8L196.6,298.7z M190.2,290c0.2-5.5-0.8-8.5-4.1-8.5
		c-3.6,0-4.6,3.4-4.7,8.5C181.5,290,190.2,290,190.2,290z"/>
	<path fill="#242525" d="M215.8,282.5v-6c-0.7-0.2-1.5-0.4-2.5-0.4c-4.4,0-6.5,3.4-7.2,5.3H206l-0.2-4.6h-5.8v33h6.5v-17
		c0-6.4,1.4-10.3,4.7-11.2C214,280.7,215.8,282.5,215.8,282.5z"/>
	<path fill="#242525" d="M47.3,281.3c0.9-0.4,1.6-1.2,1.6-2.2c0-0.9-0.6-1.8-1.4-2.2V267h-1.9v9.9c-0.9,0.4-1.5,1.2-1.5,2.2
		c0,1.1,0.7,2,1.6,2.2c-1.1,0.4-1.9,1.4-1.9,2.6v8.2h1.3v-7.2c0-0.2,0.1-0.4,0.4-0.4s0.4,0.1,0.4,0.4v7.2h1.4v-7.2
		c0-0.2,0.1-0.4,0.4-0.4s0.4,0.1,0.4,0.4v7.2h1.4v-8.2C49.2,282.7,48.3,281.7,47.3,281.3z"/>
	<g>
		<path fill="#242525" d="M141.1,288.5c-0.2-4.8-1.3-7.1-4.4-7.1c-4.1,0-5,4.1-5,12.5c0,7,0.8,11.2,5.3,11.2c2.9,0,4-1.9,4.2-6.8
			l6,0.4c-0.4,9.6-5.4,12-10.6,12c-9.5,0-11.7-7.4-11.7-16.9c0-11.3,3.9-17.9,12.3-17.9c7.6,0,10,5.3,10,12.3L141.1,288.5z"/>
		<path fill="#242525" d="M171.8,309.8h-6.4v-22.3c0-3.6-0.7-6.1-3.9-6.1c-4.8,0-5.3,4.9-5.3,10.2v18.2h-6.5v-47.1h6.5v17.7h0.1
			c0.8-1.9,2.9-4.7,7.4-4.7c5.8,0,8.1,3.6,8.1,10.7V309.8z"/>
	</g>
	<path fill="#242525" d="M123.7,305.2c-1.2,0.4-1.8,0.7-2.6,0c-2.7-2-4.2,4.9-2.2,5c2.9,0.1,5.4-0.5,6.9-1.2
		C124.7,308,124.1,307,123.7,305.2z"/>
</g>
</svg>
